<svg xmlns="http://www.w3.org/2000/svg" xmlns:xlink="http://www.w3.org/1999/xlink" version="1.1" width="256" height="256" viewBox="0 0 256 256" xml:space="preserve">
<g style="stroke: none; stroke-width: 0; stroke-dasharray: none; stroke-linecap: butt; stroke-linejoin: miter; stroke-miterlimit: 10; fill: none; fill-rule: nonzero; opacity: 1;" transform="translate(1.4065934065934016 1.4065934065934016) scale(2.81 2.81)">
	<path d="M 37.293 71.691 c -0.272 0 -0.547 -0.056 -0.807 -0.17 c -0.784 -0.347 -1.26 -1.153 -1.184 -2.007 c 0.199 -2.241 -0.598 -4.437 -2.186 -6.026 l 0 0 c -1.491 -1.49 -3.47 -2.285 -5.586 -2.211 c -0.847 0.051 -1.599 -0.472 -1.913 -1.244 c -0.315 -0.774 -0.116 -1.663 0.499 -2.227 L 79.851 8.45 c 2.395 -2.2 6.073 -2.122 8.373 0.178 c 2.3 2.299 2.378 5.977 0.179 8.373 L 38.767 71.043 C 38.379 71.465 37.841 71.691 37.293 71.691 z M 31.808 58.008 c 1.539 0.574 2.956 1.474 4.135 2.652 l 0 0 c 1.285 1.284 2.23 2.829 2.791 4.505 l 46.723 -50.869 c 0.745 -0.812 0.719 -2.06 -0.061 -2.84 c -0.78 -0.78 -2.029 -0.805 -2.841 -0.06 L 31.808 58.008 z" style="stroke: none; stroke-width: 1; stroke-dasharray: none; stroke-linecap: butt; stroke-linejoin: miter; stroke-miterlimit: 10; fill: #FFFFFF; fill-rule: nonzero; opacity: 1;" transform=" matrix(1 0 0 1 0 0) " stroke-linecap="round"/>
	<path d="M 22.307 83.157 c -7.124 0 -14.372 -4.044 -21.378 -8.498 c -0.74 -0.47 -1.087 -1.367 -0.856 -2.213 s 0.985 -1.443 1.861 -1.474 c 6.6 -0.228 9.861 -2.525 17.647 -10.312 l 0 0 c 4.511 -4.511 11.851 -4.511 16.362 0 c 4.511 4.51 4.511 11.851 0 16.362 C 31.52 81.445 26.94 83.157 22.307 83.157 z M 7.777 74.135 c 10.522 6.009 18.058 7.336 25.338 0.06 c 2.951 -2.952 2.951 -7.754 0 -10.706 c -2.952 -2.951 -7.754 -2.95 -10.706 0 l 0 0 C 16.508 69.39 12.749 72.705 7.777 74.135 z" style="stroke: none; stroke-width: 1; stroke-dasharray: none; stroke-linecap: butt; stroke-linejoin: miter; stroke-miterlimit: 10; fill: #FFFFFF; fill-rule: nonzero; opacity: 1;" transform=" matrix(1 0 0 1 0 0) " stroke-linecap="round"/>
</g>
</svg>