<svg xmlns="http://www.w3.org/2000/svg" xmlns:xlink="http://www.w3.org/1999/xlink" version="1.1" width="42" height="42" viewBox="0 0 256 256" xml:space="preserve">
<g style="stroke: none; stroke-width: 0; stroke-dasharray: none; stroke-linecap: butt; stroke-linejoin: miter; stroke-miterlimit: 10; fill: none; fill-rule: nonzero; opacity: 1;" transform="translate(1.4065934065934016 1.4065934065934016) scale(2.81 2.81)">
	<path d="M 89.766 56.457 c -0.783 -2.56 -3.364 -4.138 -5.993 -3.669 c -0.161 0.029 -0.333 0.069 -0.496 0.099 v -15.84 c 0 -4.45 -3.213 -8.157 -7.44 -8.939 c 1.421 -1.266 2.322 -3.103 2.322 -5.152 V 19.58 c 0 -3.809 -3.099 -6.907 -6.907 -6.907 s -6.907 3.099 -6.907 6.907 v 3.376 c 0 2.054 0.906 3.895 2.333 5.162 c -1.846 0.346 -3.555 1.253 -4.872 2.609 c -1.289 -1.331 -2.978 -2.268 -4.873 -2.619 c 1.421 -1.266 2.322 -3.103 2.322 -5.152 V 19.58 c 0 -3.809 -3.099 -6.907 -6.907 -6.907 s -6.907 3.099 -6.907 6.907 v 3.376 c 0 2.048 0.901 3.886 2.322 5.152 c -1.895 0.351 -3.584 1.288 -4.872 2.619 c -1.317 -1.356 -3.026 -2.264 -4.873 -2.609 c 1.427 -1.266 2.333 -3.108 2.333 -5.162 V 19.58 c 0 -3.809 -3.099 -6.907 -6.907 -6.907 s -6.907 3.099 -6.907 6.907 v 3.376 c 0 2.048 0.901 3.886 2.322 5.152 c -4.227 0.782 -7.44 4.489 -7.44 8.939 V 49.23 c -1.184 0.736 -2.397 1.622 -3.641 2.708 c -0.504 0.441 -1.143 0.644 -1.75 0.677 l -0.346 -0.016 v -3.532 c 0 -0.553 -0.448 -1 -1 -1 H 1.001 c -0.552 0 -1 0.447 -1 1 v 27.259 c 0 0.553 0.448 1 1 1 h 13.682 c 0.552 0 1 -0.447 1 -1 V 72.33 h 3.87 c 1.63 0 3.264 0.18 4.855 0.534 l 14.567 3.248 c 1.301 0.291 2.637 0.438 3.976 0.438 c 0.088 0 0.176 -0.001 0.265 -0.002 l 8.061 -0.117 c 2.403 -0.035 4.74 -0.534 6.94 -1.48 L 86.79 62.885 C 89.281 61.812 90.56 59.049 89.766 56.457 z M 66.344 22.956 V 19.58 c 0 -2.706 2.201 -4.907 4.907 -4.907 s 4.907 2.201 4.907 4.907 v 3.376 c 0 2.706 -2.201 4.907 -4.907 4.907 S 66.344 25.662 66.344 22.956 z M 63.041 32.32 c 1.347 -1.515 3.237 -2.371 5.284 -2.371 h 5.854 c 3.914 0 7.098 3.184 7.098 7.098 l -0.002 16.231 c -0.092 0.019 -0.189 0.043 -0.281 0.063 c -0.42 0.09 -0.851 0.189 -1.278 0.286 c -0.557 0.126 -1.117 0.254 -1.685 0.39 c -0.352 0.084 -0.705 0.168 -1.062 0.256 V 41.778 c 0 -0.552 -0.447 -1 -1 -1 s -1 0.448 -1 1 v 12.997 c -0.057 0.015 -0.115 0.03 -0.173 0.044 c -0.398 0.102 -0.794 0.202 -1.197 0.306 c -0.991 0.257 -1.994 0.52 -3.014 0.788 c -1.06 0.279 -2.138 0.561 -3.216 0.84 c -0.209 0.054 -0.418 0.108 -0.627 0.162 c -1.029 0.265 -2.056 0.522 -3.076 0.771 c -0.152 0.037 -0.304 0.072 -0.456 0.109 c 0.002 -0.004 0.004 -0.008 0.006 -0.012 c 0.176 -0.274 0.334 -0.554 0.47 -0.845 c 0.025 -0.052 0.044 -0.105 0.068 -0.157 c 0.112 -0.256 0.217 -0.513 0.298 -0.78 c 0.041 -0.132 0.067 -0.267 0.1 -0.401 c 0.048 -0.201 0.104 -0.399 0.135 -0.604 c 0.055 -0.355 0.087 -0.714 0.087 -1.077 V 37.047 c 0 -0.381 -0.031 -0.755 -0.077 -1.124 c -0.013 -0.104 -0.031 -0.206 -0.047 -0.308 c -0.046 -0.291 -0.106 -0.577 -0.179 -0.858 c -0.022 -0.083 -0.04 -0.167 -0.064 -0.249 c -0.107 -0.368 -0.234 -0.727 -0.385 -1.074 c -0.005 -0.012 -0.012 -0.024 -0.017 -0.036 c -0.153 -0.347 -0.331 -0.68 -0.525 -1.004 C 63.065 32.369 63.055 32.344 63.041 32.32 z M 47.441 22.956 V 19.58 c 0 -2.706 2.201 -4.907 4.907 -4.907 c 2.706 0 4.907 2.201 4.907 4.907 v 3.376 c 0 2.706 -2.201 4.907 -4.907 4.907 C 49.643 27.863 47.441 25.662 47.441 22.956 z M 49.421 29.949 h 5.855 c 2.355 0 4.44 1.158 5.732 2.929 c 0.216 0.296 0.407 0.604 0.573 0.923 c 0.009 0.017 0.017 0.035 0.025 0.052 c 0.156 0.306 0.287 0.621 0.396 0.944 c 0.008 0.023 0.018 0.046 0.025 0.069 c 0.102 0.315 0.177 0.638 0.234 0.965 c 0.012 0.07 0.022 0.141 0.032 0.212 c 0.047 0.331 0.079 0.665 0.079 1.004 V 53.92 c 0 0.265 -0.024 0.528 -0.066 0.788 c -0.006 0.039 -0.016 0.077 -0.023 0.115 c -0.025 0.137 -0.067 0.271 -0.104 0.406 c -0.013 -0.022 -0.026 -0.043 -0.039 -0.065 c -0.069 -0.119 -0.138 -0.238 -0.211 -0.354 c -0.013 -0.021 -0.025 -0.044 -0.039 -0.065 c 0 -0.001 -0.091 -0.136 -0.091 -0.136 c -0.034 -0.051 -0.07 -0.098 -0.105 -0.148 c -0.065 -0.093 -0.129 -0.187 -0.197 -0.278 c -0.013 -0.018 -0.026 -0.038 -0.039 -0.055 l -0.09 -0.111 c -0.024 -0.03 -0.051 -0.056 -0.076 -0.086 c -0.157 -0.194 -0.321 -0.381 -0.493 -0.561 c -0.058 -0.062 -0.116 -0.122 -0.176 -0.182 c -0.167 -0.166 -0.341 -0.324 -0.521 -0.477 c -0.042 -0.036 -0.08 -0.077 -0.122 -0.112 c -0.012 -0.012 -0.068 -0.061 -0.081 -0.071 c -0.1 -0.079 -0.203 -0.154 -0.307 -0.229 l -0.003 0.004 c -0.041 -0.03 -0.082 -0.059 -0.123 -0.089 l 0.003 -0.006 c -0.067 -0.05 -0.136 -0.099 -0.204 -0.145 c -0.019 -0.013 -0.039 -0.024 -0.058 -0.037 c -0.042 -0.028 -0.085 -0.054 -0.128 -0.081 c -0.035 -0.022 -0.07 -0.045 -0.105 -0.067 c -0.001 -0.001 -0.099 -0.061 -0.101 -0.062 c -0.094 -0.058 -0.189 -0.115 -0.283 -0.167 c -0.019 -0.011 -0.045 -0.023 -0.064 -0.034 c -0.061 -0.034 -0.124 -0.065 -0.186 -0.097 c -0.033 -0.017 -0.058 -0.031 -0.095 -0.05 c -0.06 -0.03 -0.121 -0.058 -0.182 -0.087 v -9.604 c 0 -0.552 -0.447 -1 -1 -1 c -0.553 0 -1 0.448 -1 1 v 8.914 c -0.012 -0.003 -0.025 -0.004 -0.037 -0.006 c -0.007 -0.002 -0.014 -0.004 -0.021 -0.005 c -0.171 -0.036 -0.347 -0.064 -0.602 -0.104 l -0.033 -0.005 c -0.048 -0.007 -0.095 -0.017 -0.143 -0.023 l -0.022 -0.003 c -0.271 -0.032 -0.543 -0.055 -0.821 -0.064 l -1.936 -0.065 c -0.396 0 -0.793 -0.023 -1.188 -0.06 l -0.294 -0.036 c -0.05 -0.006 -0.101 -0.013 -0.152 -0.019 c -0.259 -0.031 -0.516 -0.063 -0.777 -0.108 c -0.055 -0.009 -0.117 -0.022 -0.173 -0.032 c -0.147 -0.026 -0.295 -0.056 -0.442 -0.085 c -0.211 -0.042 -0.421 -0.084 -0.632 -0.133 c -0.012 -0.003 -0.024 -0.006 -0.036 -0.009 c -0.042 -0.01 -0.085 -0.021 -0.127 -0.031 v -8.123 c 0 -0.552 -0.447 -1 -1 -1 s -1 0.448 -1 1 v 7.574 c -0.119 -0.037 -0.238 -0.073 -0.356 -0.111 l -0.966 -0.314 c -0.73 -0.245 -1.459 -0.502 -2.186 -0.759 c -0.016 -0.006 -0.033 -0.012 -0.049 -0.017 c -0.249 -0.088 -0.499 -0.176 -0.75 -0.264 V 37.047 c 0 -0.339 0.032 -0.673 0.079 -1.004 c 0.01 -0.071 0.02 -0.141 0.032 -0.211 c 0.057 -0.328 0.132 -0.651 0.235 -0.966 c 0.007 -0.022 0.017 -0.044 0.024 -0.066 c 0.11 -0.325 0.242 -0.643 0.399 -0.951 c 0.008 -0.015 0.014 -0.03 0.022 -0.045 c 0.167 -0.321 0.36 -0.632 0.577 -0.929 C 44.985 31.105 47.068 29.949 49.421 29.949 z M 28.538 22.956 V 19.58 c 0 -2.706 2.201 -4.907 4.907 -4.907 s 4.907 2.201 4.907 4.907 v 3.376 c 0 2.706 -2.201 4.907 -4.907 4.907 S 28.538 25.662 28.538 22.956 z M 23.42 48.111 V 37.047 c 0 -3.914 3.184 -7.098 7.098 -7.098 h 5.855 c 2.046 0 3.937 0.856 5.284 2.371 c -0.016 0.025 -0.026 0.053 -0.041 0.079 c -0.19 0.317 -0.364 0.644 -0.515 0.985 c -0.008 0.018 -0.018 0.035 -0.026 0.053 c -0.15 0.345 -0.276 0.701 -0.382 1.066 c -0.025 0.086 -0.044 0.173 -0.067 0.259 c -0.072 0.278 -0.132 0.561 -0.177 0.849 c -0.017 0.104 -0.035 0.207 -0.048 0.312 c -0.046 0.369 -0.077 0.742 -0.077 1.123 v 10.155 c -0.608 -0.199 -1.233 -0.389 -1.866 -0.562 c -0.069 -0.019 -0.137 -0.037 -0.206 -0.055 c -0.315 -0.084 -0.631 -0.162 -0.949 -0.234 c -0.052 -0.012 -0.103 -0.025 -0.155 -0.036 c -0.346 -0.076 -0.693 -0.143 -1.04 -0.2 c -0.087 -0.014 -0.173 -0.025 -0.259 -0.038 c -0.264 -0.04 -0.527 -0.073 -0.79 -0.099 c -0.101 -0.01 -0.203 -0.021 -0.304 -0.029 c -0.34 -0.027 -0.68 -0.046 -1.015 -0.046 c -1.265 0 -2.605 0.063 -4.012 0.265 v -4.388 c 0 -0.552 -0.448 -1 -1 -1 c -0.552 0 -1 0.448 -1 1 v 4.772 c -0.61 0.148 -1.232 0.329 -1.864 0.547 c -0.052 0.018 -0.105 0.036 -0.157 0.054 c -0.312 0.11 -0.626 0.231 -0.943 0.361 c -0.084 0.034 -0.168 0.067 -0.252 0.102 c -0.292 0.124 -0.587 0.26 -0.884 0.402 C 23.558 48.05 23.489 48.078 23.42 48.111 z M 13.683 75.327 H 2.001 V 50.067 h 11.682 V 75.327 z M 86.005 61.045 L 57.433 73.111 c -1.965 0.845 -4.046 1.289 -6.186 1.32 l -8.061 0.117 c -1.277 0.015 -2.54 -0.112 -3.775 -0.388 l -14.567 -3.248 c -1.734 -0.387 -3.515 -0.583 -5.29 -0.583 h -3.87 V 54.601 l 0.292 0.013 c 1.108 -0.003 2.248 -0.407 3.12 -1.17 c 1.384 -1.209 2.729 -2.158 4.031 -2.903 c 0.095 -0.055 0.192 -0.104 0.287 -0.157 c 0.488 -0.269 0.97 -0.511 1.446 -0.726 c 0.097 -0.044 0.193 -0.091 0.29 -0.133 c 0.213 -0.092 0.423 -0.174 0.633 -0.256 c 0.184 -0.072 0.369 -0.142 0.555 -0.208 c 0.161 -0.057 0.322 -0.114 0.482 -0.166 c 2.091 -0.674 4.336 -0.994 6.92 -0.994 c 0.308 0 0.621 0.017 0.936 0.044 c 0.169 0.015 0.34 0.039 0.511 0.06 c 0.142 0.018 0.284 0.033 0.427 0.055 c 0.21 0.033 0.421 0.072 0.632 0.113 c 0.108 0.021 0.215 0.04 0.323 0.063 c 0.222 0.047 0.445 0.099 0.667 0.153 c 0.103 0.025 0.207 0.051 0.31 0.078 c 0.224 0.058 0.448 0.118 0.671 0.181 c 0.104 0.03 0.208 0.061 0.312 0.091 c 0.229 0.068 0.457 0.135 0.683 0.206 c 0.035 0.011 0.071 0.023 0.107 0.035 c 0.572 0.182 1.134 0.372 1.675 0.56 c 0.001 0 0.002 0 0.003 0.001 l 1.351 0.475 c 0.057 0.02 0.114 0.039 0.171 0.06 c 1.032 0.366 2.075 0.731 3.122 1.063 l 0.024 0.008 c 0.004 0.001 0.009 0.003 0.013 0.004 c 0.224 0.071 0.447 0.141 0.671 0.208 c 0.014 0.004 0.028 0.009 0.043 0.013 l 0.466 0.133 c 0.299 0.085 0.598 0.166 0.896 0.242 c 0.003 0.001 0.007 0.002 0.01 0.003 c 0.06 0.015 0.121 0.029 0.181 0.044 c 0.935 0.232 1.869 0.41 2.799 0.513 l 0.014 0.002 c 0.006 0.001 0.012 0.001 0.019 0.002 c 0.519 0.057 1.036 0.095 1.551 0.099 c 0.024 0 0.052 0.004 0.076 0.004 c 0.004 0 0.008 0 0.012 0 c 0.001 0 0.002 0 0.002 0 l 1.9 0.064 c 0.019 0.001 0.037 0.004 0.056 0.004 c 0.2 0.008 0.399 0.024 0.595 0.048 l 0.102 0.017 c 0.005 0.001 0.104 0.017 0.109 0.018 c 0.103 0.016 0.204 0.034 0.304 0.053 c 0.038 0.007 0.076 0.012 0.114 0.02 l 0.235 0.058 c 0.126 0.031 0.252 0.064 0.375 0.102 l 0.232 0.077 c 0.125 0.043 0.249 0.089 0.371 0.138 c 0.072 0.029 0.144 0.06 0.219 0.093 c 0.121 0.054 0.241 0.112 0.359 0.172 c 0.069 0.034 0.137 0.07 0.205 0.108 c 0.125 0.069 0.247 0.142 0.367 0.218 c 0.05 0.031 0.1 0.062 0.15 0.094 c 0.158 0.105 0.312 0.216 0.461 0.333 c 0.01 0.007 0.022 0.016 0.031 0.023 c 0.062 0.049 0.118 0.104 0.179 0.155 c 0.154 0.131 0.305 0.268 0.449 0.413 c 0.034 0.034 0.067 0.069 0.1 0.103 c 0.15 0.157 0.295 0.32 0.432 0.491 c 0.043 0.053 0.088 0.105 0.129 0.159 c 0.066 0.087 0.128 0.177 0.189 0.267 c 0.051 0.074 0.102 0.147 0.15 0.223 c 0.069 0.107 0.133 0.217 0.195 0.328 c 0.035 0.062 0.07 0.125 0.104 0.188 c 0.064 0.123 0.126 0.248 0.184 0.375 c 0.023 0.051 0.046 0.103 0.068 0.155 c 0.058 0.137 0.116 0.281 0.191 0.495 c 0.004 0.011 0.007 0.021 0.011 0.032 c 0.052 0.157 0.103 0.315 0.146 0.477 c 0.03 0.114 0.049 0.233 0.073 0.35 c -8.568 1.942 -16.591 2.887 -20.296 -0.512 c -0.407 -0.373 -1.04 -0.345 -1.413 0.062 c -0.374 0.407 -0.346 1.039 0.061 1.413 c 4.6 4.218 13.644 3.004 23.431 0.682 c 0.008 -0.002 0.016 -0.001 0.024 -0.003 c 0.078 -0.018 0.157 -0.04 0.235 -0.058 c 1.247 -0.298 2.503 -0.61 3.765 -0.934 c 0.075 -0.019 0.148 -0.038 0.222 -0.057 c 1.296 -0.334 2.596 -0.674 3.891 -1.015 c 1.035 -0.272 2.052 -0.539 3.06 -0.8 c 0.451 -0.117 0.888 -0.226 1.332 -0.339 c 0.598 -0.153 1.194 -0.304 1.78 -0.448 c 0.497 -0.123 0.984 -0.237 1.472 -0.353 c 0.515 -0.122 1.026 -0.241 1.53 -0.355 c 0.499 -0.112 0.991 -0.218 1.48 -0.32 c 0.793 -0.167 1.585 -0.332 2.346 -0.467 c 1.642 -0.29 3.243 0.691 3.73 2.286 C 88.349 58.658 87.551 60.379 86.005 61.045 z" style="stroke: none; stroke-width: 1; stroke-dasharray: none; stroke-linecap: butt; stroke-linejoin: miter; stroke-miterlimit: 10; fill: #ffffff; fill-rule: nonzero; opacity: 1;" transform=" matrix(1 0 0 1 0 0) " stroke-linecap="round"/>
</g>
</svg>