<svg xmlns="http://www.w3.org/2000/svg" xmlns:xlink="http://www.w3.org/1999/xlink" version="1.1" width="42" height="42" viewBox="0 0 256 256" xml:space="preserve">
<g style="stroke: none; stroke-width: 0; stroke-dasharray: none; stroke-linecap: butt; stroke-linejoin: miter; stroke-miterlimit: 10; fill: #ffffff; fill-rule: nonzero; opacity: 1;" transform="translate(1.4065934065934016 1.4065934065934016) scale(2.81 2.81)">
	<path d="M 86.159 8.322 H 3.84 c -2.118 0 -3.84 1.723 -3.84 3.84 v 64.414 c 0 2.118 1.723 3.841 3.84 3.841 H 30.95 c 0.552 0 1 -0.447 1 -1 s -0.448 -1 -1 -1 H 3.84 c -1.015 0 -1.84 -0.826 -1.84 -1.841 V 22.743 h 86 v 53.833 c 0 1.015 -0.826 1.841 -1.841 1.841 H 59.227 c -0.553 0 -1 0.447 -1 1 s 0.447 1 1 1 h 26.933 c 2.118 0 3.841 -1.723 3.841 -3.841 V 12.163 C 90 10.045 88.277 8.322 86.159 8.322 z M 2 20.743 v -8.581 c 0 -1.015 0.826 -1.84 1.84 -1.84 h 82.319 c 1.015 0 1.841 0.826 1.841 1.84 v 8.581 H 2 z" style="stroke: none; stroke-width: 1; stroke-dasharray: none; stroke-linecap: butt; stroke-linejoin: miter; stroke-miterlimit: 10; fill: #ffffff; fill-rule: nonzero; opacity: 1;" transform=" matrix(1 0 0 1 0 0) " stroke-linecap="round"/>
	<path d="M 34.509 16.411 H 6.559 c -0.552 0 -1 -0.448 -1 -1 s 0.448 -1 1 -1 h 27.95 c 0.552 0 1 0.448 1 1 S 35.062 16.411 34.509 16.411 z" style="stroke: none; stroke-width: 1; stroke-dasharray: none; stroke-linecap: butt; stroke-linejoin: miter; stroke-miterlimit: 10; fill: #ffffff; fill-rule: nonzero; opacity: 1;" transform=" matrix(1 0 0 1 0 0) " stroke-linecap="round"/>
	<path d="M 83.941 16.411 h -6.5 c -0.553 0 -1 -0.448 -1 -1 s 0.447 -1 1 -1 h 6.5 c 0.553 0 1 0.448 1 1 S 84.494 16.411 83.941 16.411 z" style="stroke: none; stroke-width: 1; stroke-dasharray: none; stroke-linecap: butt; stroke-linejoin: miter; stroke-miterlimit: 10; fill: #ffffff; fill-rule: nonzero; opacity: 1;" transform=" matrix(1 0 0 1 0 0) " stroke-linecap="round"/>
	<path d="M 50.151 89.728 h -9.698 c -2.148 0 -3.896 -1.748 -3.896 -3.896 V 80.92 c 0 -2.023 -0.909 -3.899 -2.431 -5.018 C 28.899 72.06 26.123 65.9 26.7 59.428 c 0.811 -9.077 8.298 -16.246 17.417 -16.674 c 5.08 -0.234 9.902 1.557 13.571 5.058 c 3.671 3.503 5.693 8.226 5.693 13.299 c 0 5.544 -2.472 10.737 -6.781 14.246 c -1.623 1.319 -2.553 3.182 -2.553 5.111 v 5.363 C 54.048 87.979 52.3 89.728 50.151 89.728 z M 45.011 44.732 c -0.266 0 -0.533 0.006 -0.8 0.019 c -8.125 0.382 -14.797 6.768 -15.519 14.854 c -0.515 5.771 1.959 11.261 6.618 14.686 c 2.033 1.493 3.247 3.972 3.247 6.629 v 4.911 c 0 1.046 0.851 1.896 1.896 1.896 h 9.698 c 1.046 0 1.896 -0.851 1.896 -1.896 v -5.363 c 0 -2.534 1.199 -4.962 3.29 -6.662 c 3.841 -3.128 6.044 -7.755 6.044 -12.695 c 0 -4.521 -1.802 -8.729 -5.074 -11.852 C 53.23 46.323 49.245 44.732 45.011 44.732 z" style="stroke: none; stroke-width: 1; stroke-dasharray: none; stroke-linecap: butt; stroke-linejoin: miter; stroke-miterlimit: 10; fill: #ffffff; fill-rule: nonzero; opacity: 1;" transform=" matrix(1 0 0 1 0 0) " stroke-linecap="round"/>
	<path d="M 53.763 55.447 l -5.058 1.846 l 1.298 1.087 l -3.69 4.406 l -4.795 -4.141 l -6.02 6.758 c -0.368 0.412 -0.331 1.044 0.082 1.412 c 0.19 0.169 0.428 0.253 0.665 0.253 c 0.275 0 0.55 -0.113 0.747 -0.335 l 4.71 -5.287 l 4.84 4.18 l 4.995 -5.962 l 1.297 1.086 L 53.763 55.447 z" style="stroke: none; stroke-width: 1; stroke-dasharray: none; stroke-linecap: butt; stroke-linejoin: miter; stroke-miterlimit: 10; fill: #ffffff; fill-rule: nonzero; opacity: 1;" transform=" matrix(1 0 0 1 0 0) " stroke-linecap="round"/>
	<path d="M 24.038 60.517 h -7.999 c -0.552 0 -1 -0.447 -1 -1 s 0.448 -1 1 -1 h 7.999 c 0.552 0 1 0.447 1 1 S 24.59 60.517 24.038 60.517 z" style="stroke: none; stroke-width: 1; stroke-dasharray: none; stroke-linecap: butt; stroke-linejoin: miter; stroke-miterlimit: 10; fill: #ffffff; fill-rule: nonzero; opacity: 1;" transform=" matrix(1 0 0 1 0 0) " stroke-linecap="round"/>
	<path d="M 74.039 60.517 H 66.04 c -0.553 0 -1 -0.447 -1 -1 s 0.447 -1 1 -1 h 7.999 c 0.553 0 1 0.447 1 1 S 74.592 60.517 74.039 60.517 z" style="stroke: none; stroke-width: 1; stroke-dasharray: none; stroke-linecap: butt; stroke-linejoin: miter; stroke-miterlimit: 10; fill: #ffffff; fill-rule: nonzero; opacity: 1;" transform=" matrix(1 0 0 1 0 0) " stroke-linecap="round"/>
	<path d="M 59.889 45.667 c -0.256 0 -0.512 -0.098 -0.707 -0.293 c -0.391 -0.391 -0.391 -1.023 0 -1.414 l 5.656 -5.656 c 0.391 -0.391 1.023 -0.391 1.414 0 s 0.391 1.023 0 1.414 l -5.656 5.656 C 60.4 45.569 60.145 45.667 59.889 45.667 z" style="stroke: none; stroke-width: 1; stroke-dasharray: none; stroke-linecap: butt; stroke-linejoin: miter; stroke-miterlimit: 10; fill: #ffffff; fill-rule: nonzero; opacity: 1;" transform=" matrix(1 0 0 1 0 0) " stroke-linecap="round"/>
	<path d="M 45.039 39.516 c -0.552 0 -1 -0.448 -1 -1 v -7.999 c 0 -0.552 0.448 -1 1 -1 s 1 0.448 1 1 v 7.999 C 46.039 39.068 45.591 39.516 45.039 39.516 z" style="stroke: none; stroke-width: 1; stroke-dasharray: none; stroke-linecap: butt; stroke-linejoin: miter; stroke-miterlimit: 10; fill: #ffffff; fill-rule: nonzero; opacity: 1;" transform=" matrix(1 0 0 1 0 0) " stroke-linecap="round"/>
	<path d="M 30.189 45.667 c -0.256 0 -0.512 -0.098 -0.707 -0.293 l -5.656 -5.656 c -0.391 -0.391 -0.391 -1.023 0 -1.414 s 1.023 -0.391 1.414 0 l 5.656 5.656 c 0.391 0.391 0.391 1.023 0 1.414 C 30.701 45.569 30.445 45.667 30.189 45.667 z" style="stroke: none; stroke-width: 1; stroke-dasharray: none; stroke-linecap: butt; stroke-linejoin: miter; stroke-miterlimit: 10; fill: #ffffff; fill-rule: nonzero; opacity: 1;" transform=" matrix(1 0 0 1 0 0) " stroke-linecap="round"/>
</g>
</svg>