<svg width="25" height="24" viewBox="0 0 25 24" fill="none" xmlns="http://www.w3.org/2000/svg">
<path d="M0.744156 23.736C0.536156 23.736 0.360156 23.664 0.216156 23.52C0.0721562 23.392 0.000156164 23.224 0.000156164 23.016C0.000156164 22.792 0.0721562 22.608 0.216156 22.464C0.360156 22.336 0.536156 22.272 0.744156 22.272C1.56016 22.272 2.27216 22.096 2.88016 21.744C3.50416 21.392 3.99216 20.904 4.34416 20.28C4.69616 19.656 4.87216 18.944 4.87216 18.144V5.71199C4.87216 5.48799 4.93616 5.31199 5.06416 5.18399C5.20816 5.05599 5.38416 4.99199 5.59216 4.99199C5.81616 4.99199 5.99216 5.05599 6.12016 5.18399C6.26416 5.31199 6.33616 5.48799 6.33616 5.71199V18.144C6.33616 19.232 6.09616 20.192 5.61616 21.024C5.13616 21.872 4.47216 22.536 3.62416 23.016C2.79216 23.496 1.83216 23.736 0.744156 23.736ZM5.56816 2.23199C5.26416 2.23199 5.00016 2.12799 4.77616 1.91999C4.56816 1.69599 4.46416 1.42399 4.46416 1.10399C4.46416 0.735994 4.57616 0.463994 4.80016 0.287994C5.04016 0.095994 5.30416 -6.19888e-06 5.59216 -6.19888e-06C5.86416 -6.19888e-06 6.11216 0.095994 6.33616 0.287994C6.57616 0.463994 6.69616 0.735994 6.69616 1.10399C6.69616 1.42399 6.58416 1.69599 6.36016 1.91999C6.15216 2.12799 5.88816 2.23199 5.56816 2.23199ZM11.7405 23.736C11.5325 23.736 11.3565 23.664 11.2125 23.52C11.0845 23.392 11.0205 23.224 11.0205 23.016V11.424C11.0525 10.16 11.3565 9.03999 11.9325 8.06399C12.5245 7.07199 13.3245 6.28799 14.3325 5.71199C15.3405 5.13599 16.4685 4.84799 17.7165 4.84799C18.9965 4.84799 20.1405 5.14399 21.1485 5.73599C22.1725 6.31199 22.9725 7.11199 23.5485 8.13599C24.1405 9.14399 24.4365 10.288 24.4365 11.568C24.4365 12.832 24.1405 13.976 23.5485 15C22.9725 16.008 22.1725 16.808 21.1485 17.4C20.1405 17.976 18.9965 18.264 17.7165 18.264C16.5645 18.264 15.5245 18.016 14.5965 17.52C13.6845 17.024 12.9725 16.36 12.4605 15.528V23.016C12.4605 23.224 12.3965 23.392 12.2685 23.52C12.1405 23.664 11.9645 23.736 11.7405 23.736ZM17.7165 16.92C18.7245 16.92 19.6205 16.688 20.4045 16.224C21.2045 15.744 21.8365 15.104 22.3005 14.304C22.7645 13.488 22.9965 12.576 22.9965 11.568C22.9965 10.544 22.7645 9.63199 22.3005 8.83199C21.8365 8.01599 21.2045 7.37599 20.4045 6.91199C19.6205 6.43199 18.7245 6.19199 17.7165 6.19199C16.7245 6.19199 15.8285 6.43199 15.0285 6.91199C14.2285 7.37599 13.5965 8.01599 13.1325 8.83199C12.6845 9.63199 12.4605 10.544 12.4605 11.568C12.4605 12.576 12.6845 13.488 13.1325 14.304C13.5965 15.104 14.2285 15.744 15.0285 16.224C15.8285 16.688 16.7245 16.92 17.7165 16.92Z" fill="white"/>
</svg>
