<svg xmlns="http://www.w3.org/2000/svg" xmlns:xlink="http://www.w3.org/1999/xlink" version="1.1" width="42" height="42" viewBox="0 0 256 256" xml:space="preserve">
<g style="stroke: none; stroke-width: 0; stroke-dasharray: none; stroke-linecap: butt; stroke-linejoin: miter; stroke-miterlimit: 10; fill: none; fill-rule: nonzero; opacity: 1;" transform="translate(1.4065934065934016 1.4065934065934016) scale(2.81 2.81)">
	<path d="M 76.198 48.938 c -1.317 0 -2.635 -0.501 -3.638 -1.504 c -0.972 -0.971 -1.507 -2.263 -1.507 -3.637 s 0.535 -2.666 1.507 -3.637 c 2.006 -2.004 5.269 -2.006 7.274 0 c 0.972 0.971 1.507 2.263 1.507 3.637 s -0.535 2.666 -1.507 3.637 C 78.832 48.438 77.515 48.938 76.198 48.938 z M 76.198 40.654 c -0.84 0 -1.63 0.327 -2.224 0.921 s -0.921 1.383 -0.921 2.223 s 0.327 1.629 0.921 2.223 c 1.188 1.187 3.259 1.188 4.446 0 c 0.594 -0.594 0.921 -1.383 0.921 -2.223 s -0.327 -1.629 -0.921 -2.223 S 77.037 40.654 76.198 40.654 z" style="stroke: none; stroke-width: 1; stroke-dasharray: none; stroke-linecap: butt; stroke-linejoin: miter; stroke-miterlimit: 10; fill: #ffffff; fill-rule: nonzero; opacity: 1;" transform=" matrix(1 0 0 1 0 0) " stroke-linecap="round"/>
	<path d="M 82.746 51.346 c -0.256 0 -0.512 -0.098 -0.707 -0.293 l -3.618 -3.618 c -0.391 -0.391 -0.391 -1.023 0 -1.414 s 1.023 -0.391 1.414 0 l 3.618 3.618 c 0.391 0.391 0.391 1.023 0 1.414 C 83.258 51.248 83.002 51.346 82.746 51.346 z" style="stroke: none; stroke-width: 1; stroke-dasharray: none; stroke-linecap: butt; stroke-linejoin: miter; stroke-miterlimit: 10; fill: #ffffff; fill-rule: nonzero; opacity: 1;" transform=" matrix(1 0 0 1 0 0) " stroke-linecap="round"/>
	<path d="M 85.445 58.779 H 4.555 C 2.043 58.779 0 56.736 0 54.225 v -18.45 c 0 -2.511 2.043 -4.555 4.555 -4.555 h 80.891 c 2.512 0 4.555 2.043 4.555 4.555 v 18.45 C 90 56.736 87.957 58.779 85.445 58.779 z M 4.555 33.22 C 3.146 33.22 2 34.366 2 35.775 v 18.45 c 0 1.408 1.146 2.555 2.555 2.555 h 80.891 c 1.408 0 2.555 -1.146 2.555 -2.555 v -18.45 c 0 -1.409 -1.146 -2.555 -2.555 -2.555 H 4.555 z" style="stroke: none; stroke-width: 1; stroke-dasharray: none; stroke-linecap: butt; stroke-linejoin: miter; stroke-miterlimit: 10; fill: #ffffff; fill-rule: nonzero; opacity: 1;" transform=" matrix(1 0 0 1 0 0) " stroke-linecap="round"/>
	<path d="M 65.405 51.346 H 7.077 c -0.552 0 -1 -0.447 -1 -1 s 0.448 -1 1 -1 h 58.328 c 0.553 0 1 0.447 1 1 S 65.958 51.346 65.405 51.346 z" style="stroke: none; stroke-width: 1; stroke-dasharray: none; stroke-linecap: butt; stroke-linejoin: miter; stroke-miterlimit: 10; fill: #ffffff; fill-rule: nonzero; opacity: 1;" transform=" matrix(1 0 0 1 0 0) " stroke-linecap="round"/>
</g>
</svg>